<?xml version="1.0" encoding="UTF-8" standalone="no"?>
<!-- Created with Inkscape (http://www.inkscape.org/) -->

<svg
   xmlns:i="http://ns.adobe.com/AdobeIllustrator/10.0/"
   xmlns:dc="http://purl.org/dc/elements/1.1/"
   xmlns:cc="http://creativecommons.org/ns#"
   xmlns:rdf="http://www.w3.org/1999/02/22-rdf-syntax-ns#"
   xmlns:svg="http://www.w3.org/2000/svg"
   xmlns="http://www.w3.org/2000/svg"
   xmlns:xlink="http://www.w3.org/1999/xlink"
   xmlns:sodipodi="http://sodipodi.sourceforge.net/DTD/sodipodi-0.dtd"
   xmlns:inkscape="http://www.inkscape.org/namespaces/inkscape"
   sodipodi:docname="debexpo-logo.svg"
   inkscape:version="0.48.1 r9760"
   version="1.1"
   id="svg2"
   height="297mm"
   width="210mm">
  <defs
     id="defs4">
    <linearGradient
       id="linearGradient5701">
      <stop
         style="stop-color:#0078f1;stop-opacity:1;"
         offset="0"
         id="stop5703" />
      <stop
         style="stop-color:#000000;stop-opacity:1;"
         offset="1"
         id="stop5705" />
    </linearGradient>
    <linearGradient
       id="linearGradient5695">
      <stop
         id="stop5697"
         offset="0"
         style="stop-color:#000000;stop-opacity:1;" />
      <stop
         id="stop5699"
         offset="1"
         style="stop-color:#000000;stop-opacity:1;" />
    </linearGradient>
    <linearGradient
       inkscape:collect="always"
       id="linearGradient5621">
      <stop
         style="stop-color:#eeeeee;stop-opacity:1;"
         offset="0"
         id="stop5623" />
      <stop
         style="stop-color:#eeeeee;stop-opacity:0;"
         offset="1"
         id="stop5625" />
    </linearGradient>
    <linearGradient
       inkscape:collect="always"
       id="linearGradient3800">
      <stop
         style="stop-color:#ff7f00;stop-opacity:1;"
         offset="0"
         id="stop3802" />
      <stop
         style="stop-color:#ff7f00;stop-opacity:0;"
         offset="1"
         id="stop3804" />
    </linearGradient>
    <linearGradient
       id="linearGradient3795">
      <stop
         style="stop-color:#ffffff;stop-opacity:1;"
         offset="0"
         id="stop3797" />
      <stop
         style="stop-color:#b4b4b4;stop-opacity:1;"
         offset="1"
         id="stop3799" />
    </linearGradient>
    <linearGradient
       id="linearGradient3775">
      <stop
         style="stop-color:#ff7f00;stop-opacity:1;"
         offset="0"
         id="stop3777" />
      <stop
         style="stop-color:#ffebbb;stop-opacity:1;"
         offset="1"
         id="stop3779" />
    </linearGradient>
    <radialGradient
       inkscape:collect="always"
       xlink:href="#linearGradient3795"
       id="radialGradient3801"
       cx="254.05336"
       cy="211.41019"
       fx="254.05336"
       fy="211.41019"
       r="10.606602"
       gradientUnits="userSpaceOnUse" />
    <radialGradient
       inkscape:collect="always"
       xlink:href="#linearGradient3795"
       id="radialGradient3813"
       gradientUnits="userSpaceOnUse"
       cx="254.05336"
       cy="211.41019"
       fx="254.05336"
       fy="211.41019"
       r="10.606602" />
    <linearGradient
       inkscape:collect="always"
       xlink:href="#linearGradient3795"
       id="linearGradient3796"
       gradientUnits="userSpaceOnUse"
       x1="180.08836"
       y1="375.55997"
       x2="329.02847"
       y2="659.41284"
       gradientTransform="matrix(0.99723979,-0.07424828,0.07424828,0.99723979,8.8333675,-85.439581)" />
    <linearGradient
       inkscape:collect="always"
       xlink:href="#linearGradient3800"
       id="linearGradient3806"
       x1="-423.94223"
       y1="223.2448"
       x2="-501.1741"
       y2="-9.7331095"
       gradientUnits="userSpaceOnUse" />
    <filter
       id="filter4101"
       x="-0.25"
       width="1.5"
       y="-0.25"
       height="1.5"
       inkscape:menu="Non realistic 3D shaders"
       inkscape:menu-tooltip="Combination of smooth shading and embossing"
       inkscape:label="Emboss shader"
       color-interpolation-filters="sRGB">
      <feGaussianBlur
         id="feGaussianBlur4103"
         result="result8"
         stdDeviation="5" />
      <feComposite
         id="feComposite4105"
         in2="result8"
         in="result8"
         operator="xor"
         result="result6" />
      <feDisplacementMap
         id="feDisplacementMap4107"
         in2="result6"
         result="result4"
         scale="100"
         yChannelSelector="A"
         xChannelSelector="A"
         in="result8" />
      <feComposite
         id="feComposite4109"
         in2="result4"
         k1="1"
         in="result4"
         operator="arithmetic"
         result="result2" />
      <feComposite
         id="feComposite4111"
         in2="result8"
         operator="in"
         in="result2"
         result="fbSourceGraphic" />
    </filter>
    <filter
       id="filter4231"
       inkscape:label="Jam spread"
       inkscape:menu="Textures"
       inkscape:menu-tooltip="Glossy clumpy jam spread"
       color-interpolation-filters="sRGB">
      <feGaussianBlur
         id="feGaussianBlur4233"
         stdDeviation="1"
         in="SourceGraphic"
         result="result0" />
      <feTurbulence
         id="feTurbulence4235"
         result="result1"
         numOctaves="7"
         seed="488"
         baseFrequency="0.017"
         type="turbulence" />
      <feComposite
         id="feComposite4237"
         in2="result1"
         in="result0"
         operator="out"
         result="result2" />
      <feGaussianBlur
         id="feGaussianBlur4239"
         stdDeviation="0.5"
         result="result5" />
      <feSpecularLighting
         id="feSpecularLighting4241"
         in="result5"
         specularExponent="100"
         specularConstant="4"
         result="result4"
         surfaceScale="1.5">
        <feDistantLight
           id="feDistantLight4243"
           azimuth="225"
           elevation="62" />
      </feSpecularLighting>
      <feComposite
         id="feComposite4245"
         in2="result2"
         operator="atop"
         in="result4"
         result="result91" />
      <feBlend
         id="feBlend4247"
         in2="result91"
         mode="multiply" />
    </filter>
    <filter
       id="filter4461"
       inkscape:label="Color outline"
       inkscape:menu="Morphology"
       inkscape:menu-tooltip="Draws a colored outline around"
       width="1.5"
       height="1.5"
       x="-0.25"
       y="-0.25"
       color-interpolation-filters="sRGB">
      <feGaussianBlur
         id="feGaussianBlur4463"
         in="SourceAlpha"
         stdDeviation="3"
         result="blur" />
      <feColorMatrix
         id="feColorMatrix4465"
         values="1 0 0 0 0 0 1 0 0 0 0 0 1 0 0 0 0 0 10 -1 "
         result="result4" />
      <feFlood
         id="feFlood4467"
         result="result1"
         flood-color="rgb(154,27,74)"
         in="blur" />
      <feComposite
         in2="result4"
         id="feComposite4469"
         result="result2"
         in="result1"
         operator="atop" />
      <feComposite
         in2="result2"
         id="feComposite4471"
         in="SourceGraphic"
         result="result3"
         operator="atop" />
    </filter>
    <filter
       id="filter4569"
       inkscape:label="Diffuse light"
       inkscape:menu="ABCs"
       inkscape:menu-tooltip="Basic diffuse bevel to use for building textures"
       color-interpolation-filters="sRGB">
      <feGaussianBlur
         id="feGaussianBlur4571"
         stdDeviation="6"
         in="SourceGraphic"
         result="result0" />
      <feDiffuseLighting
         id="feDiffuseLighting4573"
         diffuseConstant="1"
         surfaceScale="10"
         result="result5">
        <feDistantLight
           id="feDistantLight4575"
           elevation="25"
           azimuth="235" />
      </feDiffuseLighting>
      <feComposite
         id="feComposite4577"
         in2="SourceGraphic"
         k1="1"
         in="result5"
         result="result4"
         operator="arithmetic"
         k2="0"
         k3="0.6" />
    </filter>
    <filter
       id="filter5237"
       inkscape:label="Parallel hollow"
       inkscape:menu="Morphology"
       inkscape:menu-tooltip="A blurry hollow going parallel to the edge on the inside"
       color-interpolation-filters="sRGB">
      <feGaussianBlur
         id="feGaussianBlur5239"
         stdDeviation="7.5"
         in="SourceAlpha"
         result="result1" />
      <feComposite
         id="feComposite5241"
         in2="result1"
         operator="arithmetic"
         k2="3.2"
         k1="-1"
         k4="-2" />
      <feColorMatrix
         id="feColorMatrix5243"
         values="0 0 0 0 0 0 1 0 0 0 0 0 1 0 0 0 0 0 3 0 "
         result="result91" />
      <feComposite
         id="feComposite5245"
         in2="result91"
         result="fbSourceGraphic"
         in="SourceGraphic"
         operator="out" />
      <feGaussianBlur
         id="feGaussianBlur5247"
         in="fbSourceGraphic"
         stdDeviation="2"
         result="result92" />
      <feComposite
         id="feComposite5249"
         in2="result92"
         operator="out"
         in="fbSourceGraphic"
         result="result93" />
      <feBlend
         id="feBlend5251"
         in2="result93"
         mode="multiply"
         result="result94" />
      <feBlend
         id="feBlend5253"
         in2="result94"
         mode="darken" />
    </filter>
    <filter
       id="filter5477"
       inkscape:label="Cutout"
       x="0"
       y="0"
       width="1"
       height="1"
       inkscape:menu="Shadows and Glows"
       inkscape:menu-tooltip="Drop shadow under the cut-out of the shape"
       color-interpolation-filters="sRGB">
      <feGaussianBlur
         id="feGaussianBlur5479"
         in="SourceAlpha"
         stdDeviation="4.2" />
      <feOffset
         id="feOffset5481"
         dy="5"
         dx="5"
         result="result91" />
      <feComposite
         id="feComposite5483"
         in2="result91"
         operator="out"
         in="SourceGraphic" />
    </filter>
    <filter
       id="filter5485"
       inkscape:label="Inset"
       inkscape:menu="Shadows and Glows"
       inkscape:menu-tooltip="Shadowy outer bevel"
       color-interpolation-filters="sRGB">
      <feMorphology
         id="feMorphology5487"
         result="result1"
         in="SourceAlpha"
         operator="dilate"
         radius="3.6" />
      <feGaussianBlur
         id="feGaussianBlur5489"
         stdDeviation="3.6"
         in="result1"
         result="result0" />
      <feDiffuseLighting
         id="feDiffuseLighting5491"
         surfaceScale="-5"
         result="result2">
        <feDistantLight
           id="feDistantLight5493"
           elevation="45"
           azimuth="225" />
      </feDiffuseLighting>
      <feComposite
         id="feComposite5495"
         in2="result0"
         operator="in"
         result="result91" />
      <feComposite
         id="feComposite5497"
         in2="result91"
         in="SourceGraphic" />
    </filter>
    <linearGradient
       inkscape:collect="always"
       xlink:href="#linearGradient5621"
       id="linearGradient5629"
       x1="-0.082109056"
       y1="54.224499"
       x2="87.042999"
       y2="54.224499"
       gradientUnits="userSpaceOnUse" />
    <linearGradient
       inkscape:collect="always"
       xlink:href="#linearGradient3775"
       id="linearGradient5643"
       x1="55.967007"
       y1="653.60767"
       x2="255.07497"
       y2="483.90204"
       gradientUnits="userSpaceOnUse"
       gradientTransform="translate(-11.111678,279.81226)" />
    <linearGradient
       inkscape:collect="always"
       xlink:href="#linearGradient3775"
       id="linearGradient5659"
       x1="610.13214"
       y1="709.92047"
       x2="259.60922"
       y2="484.65646"
       gradientUnits="userSpaceOnUse"
       gradientTransform="translate(-11.111678,279.81226)" />
    <radialGradient
       inkscape:collect="always"
       xlink:href="#linearGradient3795"
       id="radialGradient5663"
       gradientUnits="userSpaceOnUse"
       cx="254.05336"
       cy="211.41019"
       fx="254.05336"
       fy="211.41019"
       r="10.606602" />
    <linearGradient
       inkscape:collect="always"
       xlink:href="#linearGradient3775"
       id="linearGradient5669"
       gradientUnits="userSpaceOnUse"
       gradientTransform="translate(-605.08138,286.88333)"
       x1="610.13214"
       y1="709.92047"
       x2="259.60922"
       y2="484.65646" />
    <linearGradient
       inkscape:collect="always"
       xlink:href="#linearGradient3775"
       id="linearGradient5671"
       gradientUnits="userSpaceOnUse"
       gradientTransform="translate(-605.08138,286.88333)"
       x1="55.967007"
       y1="653.60767"
       x2="255.07497"
       y2="483.90204" />
    <linearGradient
       inkscape:collect="always"
       xlink:href="#linearGradient3775"
       id="linearGradient5677"
       gradientUnits="userSpaceOnUse"
       gradientTransform="translate(-605.08138,286.88333)"
       x1="610.13214"
       y1="709.92047"
       x2="259.60922"
       y2="484.65646" />
    <linearGradient
       inkscape:collect="always"
       xlink:href="#linearGradient3775"
       id="linearGradient5679"
       gradientUnits="userSpaceOnUse"
       gradientTransform="translate(-605.08138,286.88333)"
       x1="55.967007"
       y1="653.60767"
       x2="255.07497"
       y2="483.90204" />
    <linearGradient
       inkscape:collect="always"
       xlink:href="#linearGradient5701"
       id="linearGradient5682"
       gradientUnits="userSpaceOnUse"
       gradientTransform="matrix(-1,0,0,-1,642.25996,1337.5199)"
       x1="212.54065"
       y1="652.59753"
       x2="215.67902"
       y2="534.40967" />
    <linearGradient
       inkscape:collect="always"
       xlink:href="#linearGradient5701"
       id="linearGradient5707"
       x1="234.8456"
       y1="686.31458"
       x2="252.23708"
       y2="832.78674"
       gradientUnits="userSpaceOnUse" />
    <linearGradient
       inkscape:collect="always"
       xlink:href="#linearGradient5701"
       id="linearGradient5715"
       gradientUnits="userSpaceOnUse"
       x1="234.8456"
       y1="686.31458"
       x2="252.23708"
       y2="832.78674" />
    <linearGradient
       inkscape:collect="always"
       xlink:href="#linearGradient5701"
       id="linearGradient5717"
       gradientUnits="userSpaceOnUse"
       gradientTransform="matrix(-1,0,0,-1,642.25996,1337.5199)"
       x1="212.54065"
       y1="652.59753"
       x2="215.67902"
       y2="534.40967" />
    <linearGradient
       inkscape:collect="always"
       xlink:href="#linearGradient3775"
       id="linearGradient5719"
       gradientUnits="userSpaceOnUse"
       gradientTransform="translate(-11.111678,279.81226)"
       x1="610.13214"
       y1="709.92047"
       x2="259.60922"
       y2="484.65646" />
    <linearGradient
       inkscape:collect="always"
       xlink:href="#linearGradient3775"
       id="linearGradient5721"
       gradientUnits="userSpaceOnUse"
       gradientTransform="translate(-11.111678,279.81226)"
       x1="55.967007"
       y1="653.60767"
       x2="255.07497"
       y2="483.90204" />
    <linearGradient
       inkscape:collect="always"
       xlink:href="#linearGradient3775"
       id="linearGradient5724"
       gradientUnits="userSpaceOnUse"
       gradientTransform="translate(3.9390847,-3.77664)"
       x1="55.967007"
       y1="653.60767"
       x2="255.07497"
       y2="483.90204" />
    <linearGradient
       inkscape:collect="always"
       xlink:href="#linearGradient3775"
       id="linearGradient5727"
       gradientUnits="userSpaceOnUse"
       gradientTransform="translate(3.9390847,-3.77664)"
       x1="610.13214"
       y1="709.92047"
       x2="259.60922"
       y2="484.65646" />
    <linearGradient
       inkscape:collect="always"
       xlink:href="#linearGradient5701"
       id="linearGradient5730"
       gradientUnits="userSpaceOnUse"
       gradientTransform="matrix(-1,0,0,-1,657.31072,1053.931)"
       x1="212.54065"
       y1="652.59753"
       x2="215.67902"
       y2="534.40967" />
    <linearGradient
       inkscape:collect="always"
       xlink:href="#linearGradient5701"
       id="linearGradient5733"
       gradientUnits="userSpaceOnUse"
       x1="234.8456"
       y1="686.31458"
       x2="252.23708"
       y2="832.78674"
       gradientTransform="translate(15.050763,-283.5889)" />
  </defs>
  <sodipodi:namedview
     id="base"
     pagecolor="#ffffff"
     bordercolor="#666666"
     borderopacity="1.0"
     inkscape:pageopacity="0.0"
     inkscape:pageshadow="2"
     inkscape:zoom="0.7"
     inkscape:cx="71.528834"
     inkscape:cy="632.39063"
     inkscape:document-units="px"
     inkscape:current-layer="layer1"
     showgrid="false"
     inkscape:window-width="1920"
     inkscape:window-height="1002"
     inkscape:window-x="0"
     inkscape:window-y="26"
     inkscape:window-maximized="1" />
  <metadata
     id="metadata7">
    <rdf:RDF>
      <cc:Work
         rdf:about="">
        <dc:format>image/svg+xml</dc:format>
        <dc:type
           rdf:resource="http://purl.org/dc/dcmitype/StillImage" />
        <dc:title />
      </cc:Work>
    </rdf:RDF>
  </metadata>
  <g
     inkscape:label="Ebene 1"
     inkscape:groupmode="layer"
     id="layer1">
    <path
       style="fill:none;stroke:#ff7f00;stroke-width:11.70000076;stroke-linecap:butt;stroke-linejoin:miter;stroke-miterlimit:4;stroke-opacity:1;stroke-dasharray:none"
       d="m 173.74624,98.77818 c 0,0 -14.75099,-53.331847 -82.832501,-25.675695"
       id="path3815"
       inkscape:connector-curvature="0"
       sodipodi:nodetypes="cc" />
    <path
       transform="matrix(0.95480227,0,0,0.9322034,624.99427,59.364091)"
       d="m -321.42857,170.21933 a 126.42857,126.42857 0 1 1 -252.85715,0 126.42857,126.42857 0 1 1 252.85715,0 z"
       sodipodi:ry="126.42857"
       sodipodi:rx="126.42857"
       sodipodi:cy="170.21933"
       sodipodi:cx="-447.85715"
       id="path3765"
       style="color:#000000;fill:url(#linearGradient3806);fill-opacity:1;stroke:#000000;stroke-width:9.21101952000000068;stroke-miterlimit:4;stroke-opacity:1;stroke-dasharray:none;marker:none;visibility:visible;display:inline;overflow:visible;enable-background:accumulate"
       sodipodi:type="arc" />
    <path
       sodipodi:type="arc"
       style="color:#000000;fill:#ffffff;fill-opacity:1;fill-rule:nonzero;stroke:none;stroke-width:8.68999958;marker:none;visibility:visible;display:inline;overflow:visible;enable-background:accumulate"
       id="path3783"
       sodipodi:cx="-421.23361"
       sodipodi:cy="200.80359"
       sodipodi:rx="29.294424"
       sodipodi:ry="29.294424"
       d="m -391.93919,200.80359 a 29.294424,29.294424 0 1 1 -58.58885,0 29.294424,29.294424 0 1 1 58.58885,0 z"
       transform="translate(662.66007,-6.0609133)" />
    <path
       transform="translate(575.78695,23.233511)"
       d="m -391.93919,200.80359 a 29.294424,29.294424 0 1 1 -58.58885,0 29.294424,29.294424 0 1 1 58.58885,0 z"
       sodipodi:ry="29.294424"
       sodipodi:rx="29.294424"
       sodipodi:cy="200.80359"
       sodipodi:cx="-421.23361"
       id="path3785"
       style="color:#000000;fill:#ffffff;fill-opacity:1;fill-rule:nonzero;stroke:none;stroke-width:8.68999958;marker:none;visibility:visible;display:inline;overflow:visible;enable-background:accumulate"
       sodipodi:type="arc" />
    <path
       sodipodi:type="arc"
       style="color:#000000;fill:#000000;fill-opacity:1;fill-rule:nonzero;stroke:none;stroke-width:8.68999958;marker:none;visibility:visible;display:inline;overflow:visible;enable-background:accumulate"
       id="path3787"
       sodipodi:cx="254.05336"
       sodipodi:cy="211.41019"
       sodipodi:rx="10.606602"
       sodipodi:ry="10.606602"
       d="m 264.65996,211.41019 a 10.606602,10.606602 0 1 1 -21.2132,0 10.606602,10.606602 0 1 1 21.2132,0 z"
       transform="matrix(1.5238095,0,0,1.5238095,-138.63141,-116.29451)" />
    <path
       transform="matrix(1.5238095,0,0,1.5238095,-226.51468,-84.979781)"
       d="m 264.65996,211.41019 a 10.606602,10.606602 0 1 1 -21.2132,0 10.606602,10.606602 0 1 1 21.2132,0 z"
       sodipodi:ry="10.606602"
       sodipodi:rx="10.606602"
       sodipodi:cy="211.41019"
       sodipodi:cx="254.05336"
       id="path3789"
       style="color:#000000;fill:#000000;fill-opacity:1;fill-rule:nonzero;stroke:none;stroke-width:8.68999958;marker:none;visibility:visible;display:inline;overflow:visible;enable-background:accumulate"
       sodipodi:type="arc" />
    <path
       sodipodi:type="arc"
       style="color:#000000;fill:url(#radialGradient3801);fill-opacity:1;fill-rule:nonzero;stroke:none;stroke-width:8.68999958;marker:none;visibility:visible;display:inline;overflow:visible;enable-background:accumulate"
       id="path3791"
       sodipodi:cx="254.05336"
       sodipodi:cy="211.41019"
       sodipodi:rx="10.606602"
       sodipodi:ry="10.606602"
       d="m 264.65996,211.41019 a 10.606602,10.606602 0 1 1 -21.2132,0 10.606602,10.606602 0 1 1 21.2132,0 z"
       transform="matrix(0.55952379,0,0,0.55952379,22.611923,111.17763)" />
    <path
       transform="matrix(0.55952379,0,0,0.55952379,109.73758,79.610363)"
       d="m 264.65996,211.41019 a 10.606602,10.606602 0 1 1 -21.2132,0 10.606602,10.606602 0 1 1 21.2132,0 z"
       sodipodi:ry="10.606602"
       sodipodi:rx="10.606602"
       sodipodi:cy="211.41019"
       sodipodi:cx="254.05336"
       id="path5661"
       style="color:#000000;fill:url(#radialGradient5663);fill-opacity:1;fill-rule:nonzero;stroke:none;stroke-width:8.68999958;marker:none;visibility:visible;display:inline;overflow:visible;enable-background:accumulate"
       sodipodi:type="arc" />
    <path
       sodipodi:nodetypes="ccccc"
       inkscape:connector-curvature="0"
       id="path5665"
       d="M 77.988229,600.79322 C 66.940639,518.61602 69.098232,454.80248 74.452692,412.39977 184.94849,409.23129 306.06404,395.72199 395.42866,378.4043 c 1.5014,57.94328 -6.9235,153.54991 -7.3236,205.02936 -126.13865,-2.56906 -233.27069,-2.54504 -310.116831,17.35956 z"
       style="color:#000000;fill:url(#linearGradient5733);fill-opacity:1;fill-rule:nonzero;stroke:#000000;stroke-width:6;stroke-linecap:butt;stroke-linejoin:miter;stroke-miterlimit:4;stroke-opacity:1;stroke-dasharray:none;stroke-dashoffset:0;marker:none;visibility:visible;display:inline;overflow:visible;enable-background:accumulate" />
    <path
       sodipodi:nodetypes="ccccc"
       inkscape:connector-curvature="0"
       id="path5667"
       d="m 562.35639,633.41923 c 0,0 -105.56095,-50.76016 -163.64472,-59.34646 -1.01015,-84.85281 -3.03046,-195.71705 -3.03046,-195.71705 52.38605,20.9139 102.65533,45.88684 174.25131,59.59899 -0.71457,46.87985 -3.3162,195.46452 -7.57613,195.46452 z"
       style="fill:url(#linearGradient5730);fill-opacity:1;stroke:#000000;stroke-width:6;stroke-linecap:butt;stroke-linejoin:miter;stroke-miterlimit:4;stroke-opacity:1;stroke-dasharray:none" />
    <path
       style="color:#000000;fill:url(#linearGradient3796);fill-opacity:1;fill-rule:nonzero;stroke:#000000;stroke-width:15.60000038;stroke-linecap:butt;stroke-linejoin:miter;stroke-miterlimit:4;stroke-opacity:1;stroke-dashoffset:0;marker:none;visibility:visible;display:inline;overflow:visible;enable-background:accumulate"
       d="m 160.97751,277.80628 c 82.7263,-14.97148 170.47802,-22.5608 264.93679,-19.72555 6.99217,0.20988 12.03924,4.81983 13.52959,11.65454 19.39704,88.95438 21.84865,177.06013 19.72554,264.93679 -0.16895,6.99327 -4.67853,13.01019 -11.65453,13.52958 l -264.93679,19.72555 c -6.976,0.51939 -12.38149,-4.75408 -13.52958,-11.65453 -15.04957,-90.45299 -21.19148,-178.6558 -19.72555,-264.93679 0.11883,-6.9943 4.77103,-12.28384 11.65453,-13.52959 z"
       id="rect3014"
       inkscape:connector-curvature="0"
       sodipodi:nodetypes="sssssssss" />
    <g
       i:rgbTrio="#4F008000FFFF"
       i:dimmedPercent="50"
       i:layer="yes"
       id="g5499"
       transform="matrix(2.0362935,-0.86748466,0.86816472,2.0346985,172.76498,340.65797)"
       style="fill:#c6053a;fill-opacity:1;stroke:#901c2f;stroke-width:1.98845541;stroke-miterlimit:4;stroke-opacity:1;stroke-dasharray:none">
		<g
   id="g5501"
   style="fill:#c6053a;fill-opacity:1;stroke:#901c2f;stroke-width:1.98845541;stroke-miterlimit:4;stroke-opacity:1;stroke-dasharray:none">
			<path
   id="path5503"
   d="m 51.986,57.297 c -1.797,0.025 0.34,0.926 2.686,1.287 0.648,-0.506 1.236,-1.018 1.76,-1.516 -1.461,0.358 -2.948,0.366 -4.446,0.229"
   i:knockout="Off"
   inkscape:connector-curvature="0"
   style="fill:#c6053a;fill-opacity:1;stroke:#901c2f;stroke-width:1.98845541;stroke-miterlimit:4;stroke-opacity:1;stroke-dasharray:none" />

			<path
   id="path5505"
   d="m 61.631,54.893 c 1.07,-1.477 1.85,-3.094 2.125,-4.766 -0.24,1.192 -0.887,2.221 -1.496,3.307 -3.359,2.115 -0.316,-1.256 -0.002,-2.537 -3.612,4.546 -0.496,2.726 -0.627,3.996"
   i:knockout="Off"
   inkscape:connector-curvature="0"
   style="fill:#c6053a;fill-opacity:1;stroke:#901c2f;stroke-width:1.98845541;stroke-miterlimit:4;stroke-opacity:1;stroke-dasharray:none" />

			<path
   id="path5507"
   d="m 65.191,45.629 c 0.217,-3.236 -0.637,-2.213 -0.924,-0.978 0.335,0.174 0.6,2.281 0.924,0.978"
   i:knockout="Off"
   inkscape:connector-curvature="0"
   style="fill:#c6053a;fill-opacity:1;stroke:#901c2f;stroke-width:1.98845541;stroke-miterlimit:4;stroke-opacity:1;stroke-dasharray:none" />

			<path
   id="path5509"
   d="m 45.172,1.399 c 0.959,0.172 2.072,0.304 1.916,0.533 1.049,-0.23 1.287,-0.442 -1.916,-0.533"
   i:knockout="Off"
   inkscape:connector-curvature="0"
   style="fill:#c6053a;fill-opacity:1;stroke:#901c2f;stroke-width:1.98845541;stroke-miterlimit:4;stroke-opacity:1;stroke-dasharray:none" />

			<path
   id="path5511"
   d="M 47.088,1.932 46.41,2.072 47.041,2.016 47.088,1.932"
   i:knockout="Off"
   inkscape:connector-curvature="0"
   style="fill:#c6053a;fill-opacity:1;stroke:#901c2f;stroke-width:1.98845541;stroke-miterlimit:4;stroke-opacity:1;stroke-dasharray:none" />

			<path
   id="path5513"
   d="m 76.992,46.856 c 0.107,2.906 -0.85,4.316 -1.713,6.812 l -1.553,0.776 c -1.271,2.468 0.123,1.567 -0.787,3.53 -1.984,1.764 -6.021,5.52 -7.313,5.863 -0.943,-0.021 0.639,-1.113 0.846,-1.541 -2.656,1.824 -2.131,2.738 -6.193,3.846 L 60.16,65.878 C 50.142,70.591 36.226,61.251 36.409,48.507 c -0.107,0.809 -0.304,0.607 -0.526,0.934 -0.517,-6.557 3.028,-13.143 9.007,-15.832 5.848,-2.895 12.704,-1.707 16.893,2.197 -2.301,-3.014 -6.881,-6.209 -12.309,-5.91 -5.317,0.084 -10.291,3.463 -11.951,7.131 -2.724,1.715 -3.04,6.611 -4.227,7.507 -1.597,11.737 3.004,16.808 10.787,22.773 1.225,0.826 0.345,0.951 0.511,1.58 -2.586,-1.211 -4.954,-3.039 -6.901,-5.277 1.033,1.512 2.148,2.982 3.589,4.137 -2.438,-0.826 -5.695,-5.908 -6.646,-6.115 4.203,7.525 17.052,13.197 23.78,10.383 -3.113,0.115 -7.068,0.064 -10.566,-1.229 -1.469,-0.756 -3.467,-2.322 -3.11,-2.615 9.182,3.43 18.667,2.598 26.612,-3.771 2.021,-1.574 4.229,-4.252 4.867,-4.289 -0.961,1.445 0.164,0.695 -0.574,1.971 2.014,-3.248 -0.875,-1.322 2.082,-5.609 l 1.092,1.504 c -0.406,-2.696 3.348,-5.97 2.967,-10.234 0.861,-1.304 0.961,1.403 0.047,4.403 1.268,-3.328 0.334,-3.863 0.66,-6.609 0.352,0.923 0.814,1.904 1.051,2.878 -0.826,-3.216 0.848,-5.416 1.262,-7.285 -0.408,-0.181 -1.275,1.422 -1.473,-2.377 0.029,-1.65 0.459,-0.865 0.625,-1.271 -0.324,-0.186 -1.174,-1.451 -1.691,-3.877 0.375,-0.57 1.002,1.478 1.512,1.562 -0.328,-1.929 -0.893,-3.4 -0.916,-4.88 -1.49,-3.114 -0.527,0.415 -1.736,-1.337 -1.586,-4.947 1.316,-1.148 1.512,-3.396 2.404,3.483 3.775,8.881 4.404,11.117 -0.48,-2.726 -1.256,-5.367 -2.203,-7.922 0.73,0.307 -1.176,-5.609 0.949,-1.691 C 83.519,18.706 76.074,10.902 69.225,7.24 70.063,8.007 71.121,8.97 70.741,9.121 67.335,7.093 67.934,6.935 67.446,6.078 64.671,4.949 64.489,6.169 62.651,6.08 57.421,3.306 56.413,3.601 51.6,1.863 l 0.219,1.023 c -3.465,-1.154 -4.037,0.438 -7.782,0.004 -0.228,-0.178 1.2,-0.644 2.375,-0.815 -3.35,0.442 -3.193,-0.66 -6.471,0.122 0.808,-0.567 1.662,-0.942 2.524,-1.424 -2.732,0.166 -6.522,1.59 -5.352,0.295 -4.456,1.988 -12.37,4.779 -16.811,8.943 l -0.14,-0.933 c -2.035,2.443 -8.874,7.296 -9.419,10.46 l -0.544,0.127 c -1.059,1.793 -1.744,3.825 -2.584,5.67 -1.385,2.36 -2.03,0.908 -1.833,1.278 -2.724,5.523 -4.077,10.164 -5.246,13.97 0.833,1.245 0.02,7.495 0.335,12.497 -1.368,24.704 17.338,48.69 37.785,54.228 2.997,1.072 7.454,1.031 11.245,1.141 -4.473,-1.279 -5.051,-0.678 -9.408,-2.197 -3.143,-1.48 -3.832,-3.17 -6.058,-5.102 l 0.881,1.557 c -4.366,-1.545 -2.539,-1.912 -6.091,-3.037 l 0.941,-1.229 C 28.751,98.334 26.418,96.056 25.78,94.795 l -1.548,0.061 c -1.86,-2.295 -2.851,-3.949 -2.779,-5.23 l -0.5,0.891 c -0.567,-0.973 -6.843,-8.607 -3.587,-6.83 -0.605,-0.553 -1.409,-0.9 -2.281,-2.484 l 0.663,-0.758 c -1.567,-2.016 -2.884,-4.6 -2.784,-5.461 0.836,1.129 1.416,1.34 1.99,1.533 -3.957,-9.818 -4.179,-0.541 -7.176,-9.994 L 8.412,66.472 C 7.926,65.74 7.631,64.945 7.24,64.165 l 0.276,-2.75 C 4.667,58.121 6.719,47.409 7.13,41.534 7.415,39.145 9.508,36.602 11.1,32.614 l -0.97,-0.167 c 1.854,-3.234 10.586,-12.988 14.63,-12.486 1.959,-2.461 -0.389,-0.009 -0.772,-0.629 4.303,-4.453 5.656,-3.146 8.56,-3.947 3.132,-1.859 -2.688,0.725 -1.203,-0.709 5.414,-1.383 3.837,-3.144 10.9,-3.846 0.745,0.424 -1.729,0.655 -2.35,1.205 4.511,-2.207 14.275,-1.705 20.617,1.225 7.359,3.439 15.627,13.605 15.953,23.17 l 0.371,0.1 c -0.188,3.802 0.582,8.199 -0.752,12.238 l 0.908,-1.912"
   i:knockout="Off"
   inkscape:connector-curvature="0"
   style="fill:#c6053a;fill-opacity:1;stroke:#901c2f;stroke-width:1.98845541;stroke-miterlimit:4;stroke-opacity:1;stroke-dasharray:none" />

			<path
   id="path5515"
   d="m 32.372,59.764 -0.252,1.26 c 1.181,1.604 2.118,3.342 3.626,4.596 -1.085,-2.118 -1.891,-2.993 -3.374,-5.856"
   i:knockout="Off"
   inkscape:connector-curvature="0"
   style="fill:#c6053a;fill-opacity:1;stroke:#901c2f;stroke-width:1.98845541;stroke-miterlimit:4;stroke-opacity:1;stroke-dasharray:none" />

			<path
   id="path5517"
   d="m 35.164,59.654 c -0.625,-0.691 -0.995,-1.523 -1.409,-2.352 0.396,1.457 1.207,2.709 1.962,3.982 l -0.553,-1.63"
   i:knockout="Off"
   inkscape:connector-curvature="0"
   style="fill:#c6053a;fill-opacity:1;stroke:#901c2f;stroke-width:1.98845541;stroke-miterlimit:4;stroke-opacity:1;stroke-dasharray:none" />

			<path
   id="path5519"
   d="m 84.568,48.916 -0.264,0.662 c -0.484,3.438 -1.529,6.84 -3.131,9.994 1.77,-3.328 2.915,-6.968 3.395,-10.656"
   i:knockout="Off"
   inkscape:connector-curvature="0"
   style="fill:#c6053a;fill-opacity:1;stroke:#901c2f;stroke-width:1.98845541;stroke-miterlimit:4;stroke-opacity:1;stroke-dasharray:none" />

			<path
   id="path5521"
   d="M 45.527,0.537 C 46.742,0.092 48.514,0.293 49.803,0 48.123,0.141 46.451,0.225 44.8,0.438 l 0.727,0.099"
   i:knockout="Off"
   inkscape:connector-curvature="0"
   style="fill:#c6053a;fill-opacity:1;stroke:#901c2f;stroke-width:1.98845541;stroke-miterlimit:4;stroke-opacity:1;stroke-dasharray:none" />

			<path
   id="path5523"
   d="m 2.872,23.219 c 0.28,2.592 -1.95,3.598 0.494,1.889 1.31,-2.951 -0.512,-0.815 -0.494,-1.889"
   i:knockout="Off"
   inkscape:connector-curvature="0"
   style="fill:#c6053a;fill-opacity:1;stroke:#901c2f;stroke-width:1.98845541;stroke-miterlimit:4;stroke-opacity:1;stroke-dasharray:none" />

			<path
   id="path5525"
   d="M 0,35.215 C 0.563,33.487 0.665,32.449 0.88,31.449 -0.676,33.438 0.164,33.862 0,35.215"
   i:knockout="Off"
   inkscape:connector-curvature="0"
   style="fill:#c6053a;fill-opacity:1;stroke:#901c2f;stroke-width:1.98845541;stroke-miterlimit:4;stroke-opacity:1;stroke-dasharray:none" />

		</g>

	</g>
    <path
       style="color:#000000;fill:url(#linearGradient5727);fill-opacity:1;fill-rule:nonzero;stroke:#000000;stroke-width:6;stroke-linecap:butt;stroke-linejoin:miter;stroke-miterlimit:4;stroke-opacity:1;stroke-dasharray:none;stroke-dashoffset:0;marker:none;visibility:visible;display:inline;overflow:visible;enable-background:accumulate"
       d="m 572.14989,439.25961 c 11.04759,82.1772 9.90015,165.18364 4.54569,207.58635 -83.23287,31.18958 -208.07323,35.756 -313.9049,36.01578 -1.5014,-57.94328 -0.14757,-155.57022 0.25253,-207.04967 126.13865,2.56906 232.26054,-16.64786 309.10668,-36.55246 z"
       id="rect5631"
       inkscape:connector-curvature="0"
       sodipodi:nodetypes="ccccc" />
    <path
       sodipodi:nodetypes="zssscscssssz"
       inkscape:connector-curvature="0"
       id="path3808"
       d="m 113.57572,364.31623 c 4.25326,8.12757 15.87496,19.75784 29.83309,20.32671 16.22181,0.66111 18.64479,2.1752 30.96694,-1.7062 4.89061,-1.54052 10.59276,-9.03151 6.52825,-15.47561 -4.7128,-7.4719 -19.33059,-13.26529 -42.79789,-14.7691 27.25087,-0.40194 47.95006,3.68879 47.34748,-14.84464 -0.18868,-5.80346 -12.79631,-19.25143 -45.5137,-12.0151 24.13627,-3.2644 40.32013,-5.5158 39.62859,-21.89511 -0.21361,-5.05933 -6.37925,-11.67321 -20.36209,-10.28504 -26.95935,2.67643 -33.80247,10.25337 -42.07645,19.82177 -5.21687,6.03303 -6.13118,18.11417 -5.94592,26.07604 0.21956,9.43595 -1.86156,16.63872 2.3917,24.76628 z"
       style="fill:#ff7f00;fill-opacity:1;stroke:#000000;stroke-width:7.69999981;stroke-linecap:butt;stroke-linejoin:miter;stroke-miterlimit:4;stroke-opacity:1;stroke-dasharray:none" />
    <path
       style="fill:#ff7f00;fill-opacity:1;stroke:#000000;stroke-width:7.69999981;stroke-linecap:butt;stroke-linejoin:miter;stroke-miterlimit:4;stroke-opacity:1;stroke-dasharray:none"
       d="m 357.2439,221.66158 c -8.34833,3.8017 -20.59771,14.76892 -21.93025,28.67494 -1.54866,16.16125 -3.19318,18.49766 0.007,31.01391 1.27033,4.96765 8.43775,11.07155 15.0948,7.3661 7.71882,-4.29646 14.30419,-18.57498 17.09112,-41.92469 -1.09129,27.23198 -6.30965,47.67604 12.22897,48.08951 5.80509,0.12948 19.92344,-11.72264 14.49001,-44.78728 1.93748,24.27885 3.29904,40.56173 19.69165,40.76838 5.06343,0.0638 12.00509,-5.73029 11.3849,-19.76817 -1.19575,-27.06549 -8.3865,-34.31335 -17.48733,-43.099 -5.73823,-5.53949 -17.75116,-7.11416 -25.71122,-7.36527 -9.43381,-0.29761 -16.51178,-2.77012 -24.86011,1.03157 z"
       id="path3798"
       inkscape:connector-curvature="0"
       sodipodi:nodetypes="zssscscssssz" />
    <path
       style="fill:url(#linearGradient5724);fill-opacity:1;stroke:#000000;stroke-width:6;stroke-linecap:butt;stroke-linejoin:miter;stroke-miterlimit:4;stroke-opacity:1;stroke-dasharray:none"
       d="m 73.13453,412.44198 c 0,0 131.31983,55.05331 189.4036,63.63961 1.01015,84.85281 0,206.82873 0,206.82873 1.49879,0.3747 -99.25941,-15.52324 -188.393444,-72.73098 C 66.778036,575.42132 68.8746,412.44198 73.13453,412.44198 z"
       id="path5635"
       inkscape:connector-curvature="0"
       sodipodi:nodetypes="ccccc" />
    <text
       xml:space="preserve"
       style="font-size:98.22412872px;font-style:normal;font-variant:normal;font-weight:normal;font-stretch:normal;line-height:125%;letter-spacing:0px;word-spacing:0px;fill:#000000;fill-opacity:1;stroke:none;font-family:Prociono TT;-inkscape-font-specification:Prociono TT"
       x="92.629356"
       y="473.52682"
       id="text5735"
       sodipodi:linespacing="125%"
       transform="matrix(0.92485155,0.37160321,0,1.0812546,0,0)"><tspan
         sodipodi:role="line"
         id="tspan5737"
         x="92.629356"
         y="473.52682"
         style="font-style:normal;font-variant:normal;font-weight:bold;font-stretch:normal;font-family:Nimbus Sans L;-inkscape-font-specification:Nimbus Sans L Bold">deb</tspan></text>
    <text
       xml:space="preserve"
       style="font-size:107.91912079px;font-style:normal;font-variant:normal;font-weight:bold;font-stretch:normal;line-height:125%;letter-spacing:0px;word-spacing:0px;fill:#000000;fill-opacity:1;stroke:none;font-family:Prociono TT;-inkscape-font-specification:Prociono TT Bold"
       x="297.07718"
       y="642.76953"
       id="text5739"
       sodipodi:linespacing="125%"
       transform="matrix(1,-0.09549465,0,1,0,0)"><tspan
         sodipodi:role="line"
         id="tspan5741"
         x="297.07718"
         y="642.76953"
         style="font-style:normal;font-variant:normal;font-weight:bold;font-stretch:normal;font-family:Nimbus Sans L;-inkscape-font-specification:Nimbus Sans L Bold">expo</tspan></text>
    <text
       xml:space="preserve"
       style="font-size:40px;font-style:normal;font-variant:normal;font-weight:normal;font-stretch:normal;line-height:125%;letter-spacing:0px;word-spacing:0px;fill:#000000;fill-opacity:1;stroke:none;font-family:Prociono TT;-inkscape-font-specification:Prociono TT"
       x="-548.57141"
       y="-94.780678"
       id="text5743"
       sodipodi:linespacing="125%"><tspan
         sodipodi:role="line"
         id="tspan5745"
         x="-548.57141"
         y="-94.780678" /></text>
  </g>
</svg>
